:version 1.10
:name ASF
:units
  mass 1
  length 1
  angle deg
:documentation
  ASF file generated by Kaydara
:root
  axis xyz
  order  tx ty tz rx ry rz
  position 0 0 0
  orientation 0 0 0
:bonedata
  begin
    id 1
    name RightUpLegDummy
    direction -1 2.30186e-007 8.31532e-007
    length 4.46685
    axis 0 0 0 xyz
  end
  begin
    id 2
    name RightUpLeg
    direction -2.30187e-007 -1 1.24343e-010
    length 16.4045
    axis -3.49089 -0.000906625 0.000286804 xyz
    dof rx ry rz
  end
  begin
    id 3
    name RightLeg
    direction -2.30181e-007 -1 -4.17157e-009
    length 17.5097
    axis 3.68512 0.0193738 -0.131023 xyz
    dof rx ry rz
  end
  begin
    id 4
    name RightFoot
    direction 8.31421e-007 -4.51202e-011 1
    length 6.49508
    axis 4.81691e-005 -0.120479 -0.188788 xyz
    dof rx ry rz
  end
  begin
    id 5
    name RightToes
    direction 0.00124746 -0.014064 0.9999
    length 3.85082
    axis 0.000481921 0.542163 -0.142578 xyz
    dof rx ry rz
  end
  begin
    id 6
    name SpineDummy
    direction 0.0717043 0.9409 -0.331007
    length 10.0032
    axis 0 0 0 xyz
  end
  begin
    id 7
    name Spine
    direction 2.30186e-007 1 4.58806e-011
    length 9.84055
    axis -0.001389 0.000121418 2.40972e-006 xyz
    dof rx ry rz
  end
  begin
    id 8
    name Spine1
    direction 0 0 0
    length 0
    axis -0.001389 0.000121451 1.30017e-006 xyz
    dof rx ry rz
  end
  begin
    id 9
    name HEadDummy
    direction -0.00347485 0.950688 -0.310128
    length 8.00997
    axis -0.001389 0.000121451 1.30017e-006 xyz
  end
  begin
    id 10
    name HEad
    direction -0.0222688 0.980941 0.193023
    length 5.12695
    axis -0.001389 0.000121451 1.30017e-006 xyz
    dof rx ry rz
  end
  begin
    id 11
    name LeftShoulder1Dummy
    direction 0.988871 0.146793 -0.0242004
    length 3.5792
    axis -0.001389 0.000121451 1.30017e-006 xyz
  end
  begin
    id 12
    name LeftShoulder1
    direction 0.993832 0.108932 0.020779
    length 4.16823
    axis -0.001389 0.000121451 1.30017e-006 xyz
    dof rx ry rz
  end
  begin
    id 13
    name LeftArm
    direction 1 3.44807e-006 -8.31404e-007
    length 9.91437
    axis -23.1894 0.134784 0.967509 xyz
    dof rx ry rz
  end
  begin
    id 14
    name LeftForeArm
    direction 1 3.44842e-006 -8.31581e-007
    length 9.08575
    axis -9.91835 -0.06569 -0.177793 xyz
    dof rx ry rz
  end
  begin
    id 15
    name LeftHand
    direction 0.992938 -0.0411636 0.11126
    length 5.32135
    axis -0.00960232 -0.00340091 0.185173 xyz
    dof rx ry rz
  end
  begin
    id 16
    name RightShoulderDummy
    direction -0.988871 0.146793 -0.0241962
    length 3.5792
    axis -0.001389 0.000121451 1.30017e-006 xyz
  end
  begin
    id 17
    name RightShoulder
    direction -0.993832 0.108933 0.0207785
    length 4.16823
    axis 0.215806 0.000203643 -0.0068026 xyz
    dof rx ry rz
  end
  begin
    id 18
    name RightArm
    direction -1 3.90912e-006 8.31284e-007
    length 9.91437
    axis -23.2009 -0.134239 -0.964101 xyz
    dof rx ry rz
  end
  begin
    id 19
    name RightForeArm
    direction -1 3.90882e-006 8.31502e-007
    length 9.08575
    axis -9.92322 0.0658061 0.178867 xyz
    dof rx ry rz
  end
  begin
    id 20
    name RightHand
    direction -0.992843 -0.0414603 0.112003
    length 5.28593
    axis -0.00960638 0.00330671 -0.185228 xyz
    dof rx ry rz
  end
  begin
    id 21
    name LeftUpLegDummy
    direction 1 -2.30186e-007 -8.31532e-007
    length 4.46685
    axis 0 0 0 xyz
  end
  begin
    id 22
    name LeftUpLeg
    direction -2.30187e-007 -1 6.00931e-010
    length 16.4045
    axis -3.48766 0.00143442 -0.000524262 xyz
    dof rx ry rz
  end
  begin
    id 23
    name LeftLeg
    direction -2.30187e-007 -1 1.6669e-009
    length 17.5097
    axis 3.68178 -0.00654042 -0.000285133 xyz
    dof rx ry rz
  end
  begin
    id 24
    name LeftFoot
    direction 8.31532e-007 -4.54478e-011 1
    length 6.49508
    axis 1.87233e-006 4.66016e-005 -8.6538e-006 xyz
    dof rx ry rz
  end
  begin
    id 25
    name LeftToes
    direction 0.00818058 -0.00485161 0.999955
    length 3.85048
    axis 1.06247e-005 4.65869e-005 -8.65513e-006 xyz
    dof rx ry rz
  end
:hierarchy
  begin
    root RightUpLegDummy SpineDummy LeftUpLegDummy
    RightUpLegDummy RightUpLeg
    RightUpLeg RightLeg
    RightLeg RightFoot
    RightFoot RightToes
    SpineDummy Spine
    Spine Spine1
    Spine1 HEadDummy LeftShoulder1Dummy RightShoulderDummy
    HEadDummy HEad
    LeftShoulder1Dummy LeftShoulder1
    LeftShoulder1 LeftArm
    LeftArm LeftForeArm
    LeftForeArm LeftHand
    RightShoulderDummy RightShoulder
    RightShoulder RightArm
    RightArm RightForeArm
    RightForeArm RightHand
    LeftUpLegDummy LeftUpLeg
    LeftUpLeg LeftLeg
    LeftLeg LeftFoot
    LeftFoot LeftToes
  end

:SAMPLES-PER-SECOND 30
:FULLY-SPECIFIED
:DEGREES
78
root  31.808 31.447 8.70535 -165.336 -19.9622 177.257
RightUpLeg  -42.5616 4.42855 -8.46956
RightLeg  52.7162 0.200396 0.17546
RightFoot  -8.02617 -0.0137006 0.182279
RightToes  -42.7896 -0.241142 -0.330332
Spine  13.485 -2.18831 3.22572
Spine1  24.9992 -3.68686 2.48665
HEad  13.3866 28.6324 -15.9479
LeftShoulder1  0 -2.42657e-020 -4.95415e-022
LeftArm  -20.5775 -6.20984 -89.3545
LeftForeArm  42.3075 -34.8914 -7.04651
LeftHand  0.0633017 -9.78966 -1.10989
RightShoulder  0 2.42657e-020 1.07489e-018
RightArm  -20.9155 10.1393 61.1076
RightForeArm  138.955 79.8958 93.8202
RightHand  -5.21578 24.7504 -23.0906
LeftUpLeg  -36.1089 11.1333 7.47145
LeftLeg  34.6291 -4.57125 -2.74038
LeftFoot  2.03848 0.00851165 -0.478433
LeftToes  -27.4361 1.33192e-006 1.13262e-007
79
root  31.4842 31.2883 8.85908 -165.75 -19.6506 177.578
RightUpLeg  -43.6008 5.11575 -4.01207
RightLeg  55.4215 6.41684 8.0044
RightFoot  -12.2327 -0.261512 -2.06264
RightToes  -53.5841 -0.335039 -0.378337
Spine  13.9451 -1.67874 3.05089
Spine1  25.7018 -2.88248 2.75562
HEad  12.4367 27.6665 -15.625
LeftShoulder1  0 -2.42657e-020 -4.95415e-022
LeftArm  -19.2892 -7.70604 -89.4805
LeftForeArm  41.2293 -35.2316 -7.13849
LeftHand  0.0718724 -9.55632 -1.23066
RightShoulder  0 2.42657e-020 1.07489e-018
RightArm  -15.9055 13.4562 62.834
RightForeArm  99.3925 76.9844 50.0499
RightHand  -5.83495 25.7498 -24.7747
LeftUpLeg  -37.7604 10.9273 7.29784
LeftLeg  38.2018 -3.67267 -2.52769
LeftFoot  1.24629 0.00439875 -0.364705
LeftToes  -28.7273 1.33192e-006 1.13262e-007
80
root  31.1411 30.8615 9.06574 -165.914 -20.0098 176.947
RightUpLeg  -44.8832 9.43955 -3.04131
RightLeg  57.8622 9.06187 12.2442
RightFoot  -13.7891 -0.485837 -3.63896
RightToes  -56.0367 -0.35752 -0.386723
Spine  14.378 -1.13955 2.92879
Spine1  26.3195 -1.80774 3.02481
HEad  12.1128 25.7211 -15.0828
LeftShoulder1  0 -2.42657e-020 -4.95415e-022
LeftArm  -17.5083 -9.28614 -90.1862
LeftForeArm  39.9161 -35.644 -7.25097
LeftHand  0.0771117 -9.41543 -1.30728
RightShoulder  0 2.42657e-020 1.07489e-018
RightArm  -13.9474 17.7051 65.1633
RightForeArm  73.7255 63.4869 20.7007
RightHand  -6.27043 25.2666 -27.1019
LeftUpLeg  -41.0461 9.83464 6.52294
LeftLeg  44.3482 -3.23774 -2.78409
LeftFoot  0.849651 0.00230601 -0.311013
LeftToes  -31.8164 1.33192e-006 1.13262e-007
81
root  30.7868 30.0113 9.26576 -165.569 -21.7928 174.889
RightUpLeg  -46.6121 14.6665 -5.57767
RightLeg  60.4304 6.65952 9.94699
RightFoot  -14.6849 -0.435877 -3.0043
RightToes  -49.0687 -0.294672 -0.360416
Spine  15.4889 -0.061888 3.33402
Spine1  28.0851 1.31753 2.25254
HEad  11.8486 22.6829 -14.4674
LeftShoulder1  0 -2.42657e-020 -4.95415e-022
LeftArm  -14.1153 -12.3728 -91.9753
LeftForeArm  38.1246 -36.356 -7.44716
LeftHand  0.0753821 -9.18551 -1.30931
RightShoulder  0 2.42657e-020 1.07489e-018
RightArm  -18.0215 21.5033 66.4027
RightForeArm  67.4398 46.1525 10.5214
RightHand  -6.44064 25.6944 -27.3534
LeftUpLeg  -47.0043 8.53902 4.85665
LeftLeg  54.3966 -4.62404 -5.63671
LeftFoot  1.86774 0.00706147 -0.433213
LeftToes  -36.6413 1.33192e-006 1.13262e-007
82
root  30.3532 28.9119 9.52997 -164.875 -24.3499 171.767
RightUpLeg  -49.0871 15.0484 -8.28355
RightLeg  67.7902 3.21488 6.44803
RightFoot  -20.5135 -0.512384 -2.45359
RightToes  -30.439 -0.146955 -0.255005
Spine  16.9166 0.581643 4.14626
Spine1  30.1581 3.46957 2.32321
HEad  10.1962 18.3389 -14.3383
LeftShoulder1  0 -2.42657e-020 -4.95415e-022
LeftArm  -9.55541 -15.2775 -94.4496
LeftForeArm  36.8219 -37.7263 -7.83272
LeftHand  0.0542793 -9.05549 -1.05619
RightShoulder  0 2.42657e-020 1.07489e-018
RightArm  -27.9645 25.1137 65.1989
RightForeArm  60.7266 33.8468 6.73997
RightHand  -5.41389 25.693 -23.0613
LeftUpLeg  -53.299 7.32375 2.86008
LeftLeg  64.5028 -7.18349 -12.6346
LeftFoot  3.8201 0.0400363 -1.20049
LeftToes  -38.1371 1.33192e-006 1.13262e-007
83
root  29.9814 27.8134 9.89295 -163.929 -26.0843 170.225
RightUpLeg  -52.9347 13.7583 -10.2409
RightLeg  74.7633 2.02481 5.64835
RightFoot  -23.4239 -0.550131 -2.27576
RightToes  -28.5798 -0.134265 -0.241975
Spine  18.0599 1.05888 5.3745
Spine1  31.8213 4.78232 4.04529
HEad  7.74054 13.9573 -14.6547
LeftShoulder1  0 -2.42657e-020 -4.95415e-022
LeftArm  -4.85481 -17.5004 -97.0351
LeftForeArm  35.6826 -39.5321 -8.36325
LeftHand  0.0228763 -9.13566 -0.656778
RightShoulder  0 2.42657e-020 1.07489e-018
RightArm  -43.7638 29.9039 60.9813
RightForeArm  53.3164 21.6366 3.97401
RightHand  -2.92007 23.3917 -13.6716
LeftUpLeg  -58.7921 6.89238 3.22525
LeftLeg  70.6795 -7.2054 -16.4755
LeftFoot  4.45677 0.0746463 -1.91816
LeftToes  -38.3967 1.33192e-006 1.13262e-007
84
root  29.7029 26.9095 10.1524 -163.134 -27.8518 169.519
RightUpLeg  -55.4912 11.5157 -11.0771
RightLeg  79.5481 1.53785 5.72628
RightFoot  -26.1496 -0.66596 -2.48946
RightToes  -29.0181 -0.137218 -0.245084
Spine  18.5797 0.645406 6.64937
Spine1  32.4899 3.89139 6.38849
HEad  5.70355 11.2444 -15.0952
LeftShoulder1  0 -2.42657e-020 -4.95415e-022
LeftArm  -1.71892 -18.3983 -98.7074
LeftForeArm  35.6816 -40.9591 -8.80224
LeftHand  -0.134715 -9.10225 1.32334
RightShoulder  0 2.42657e-020 1.07489e-018
RightArm  -67.6799 33.2862 54.5045
RightForeArm  45.5701 9.93145 1.75154
RightHand  -0.706188 22.4656 -3.1856
LeftUpLeg  -62.117 7.63376 4.6747
LeftLeg  71.2599 -4.6112 -11.0418
LeftFoot  1.7106 0.0190754 -1.27771
LeftToes  -34.3946 1.33192e-006 1.13262e-007
85
root  29.4571 26.4449 10.3176 -162.629 -29.4741 169.422
RightUpLeg  -56.673 10.3934 -11.4021
RightLeg  81.8835 1.146 5.0163
RightFoot  -27.7113 -0.649508 -2.25536
RightToes  -28.3918 -0.135052 -0.242792
Spine  18.5815 -0.261593 7.28038
Spine1  32.2579 1.59775 8.36804
HEad  3.48296 10.0686 -15.2504
LeftShoulder1  0 -2.42657e-020 -4.95415e-022
LeftArm  0.202277 -18.9387 -99.6373
LeftForeArm  35.764 -40.9371 -8.79522
LeftHand  -0.31273 -8.76921 3.70987
RightShoulder  0 2.42657e-020 1.07489e-018
RightArm  -79.1118 31.8464 53.3636
RightForeArm  38.2344 10.5439 1.87189
RightHand  -0.734958 19.8215 -3.83583
LeftUpLeg  -62.8988 9.80558 5.90079
LeftLeg  67.4141 -1.85649 -3.7697
LeftFoot  -2.29825 -0.0213428 -1.06399
LeftToes  -27.4177 1.33192e-006 1.13262e-007
86
root  29.2797 26.3153 10.3664 -162.086 -32.2859 170.203
RightUpLeg  -56.753 9.39866 -10.6133
RightLeg  82.3532 0.710548 3.06258
RightFoot  -28.3687 -0.449075 -1.39912
RightToes  -28.208 -0.131778 -0.23932
Spine  17.8494 -1.75779 8.03089
Spine1  31.1851 -1.53811 9.46822
HEad  1.85808 11.6599 -15.2783
LeftShoulder1  0 -2.42657e-020 -4.95415e-022
LeftArm  0.046794 -18.1349 -100.048
LeftForeArm  32.4884 -41.4835 -8.97107
LeftHand  -0.255012 -7.83592 3.35517
RightShoulder  0 2.42657e-020 1.07489e-018
RightArm  -77.945 29.792 55.536
RightForeArm  24.3129 16.4949 2.9896
RightHand  0.256852 20.7892 1.7707
LeftUpLeg  -63.1538 12.637 6.35804
LeftLeg  61.674 0.644099 1.01912
LeftFoot  -3.94107 -0.048164 -1.39981
LeftToes  -22.2153 1.33192e-006 1.13262e-007
87
root  29.0419 26.5336 10.3739 -161.722 -35.7851 171.083
RightUpLeg  -55.3882 8.07183 -9.58239
RightLeg  80.9236 0.291751 0.874974
RightFoot  -28.5271 -0.199383 -0.406748
RightToes  -27.7077 -0.129378 -0.236728
Spine  16.8317 -3.54789 8.38806
Spine1  29.9458 -5.11683 9.52395
HEad  0.863919 14.4275 -14.935
LeftShoulder1  0 -2.42657e-020 -4.95415e-022
LeftArm  0.271095 -16.4529 -99.3241
LeftForeArm  26.8899 -43.1351 -9.51614
LeftHand  -0.203053 -6.39479 3.26719
RightShoulder  0 2.42657e-020 1.07489e-018
RightArm  -64.9081 26.1626 57.7973
RightForeArm  27.7269 24.0842 4.51477
RightHand  0.518452 21.4944 3.10191
LeftUpLeg  -62.8647 16.1038 4.77665
LeftLeg  55.3169 0.368299 0.456332
LeftFoot  -2.59894 -0.027574 -1.21554
LeftToes  -20.135 1.33192e-006 1.13262e-007
88
root  28.7292 26.9986 10.352 -161.755 -38.8452 172.303
RightUpLeg  -53.2317 6.71401 -8.39791
RightLeg  78.149 -0.101191 -0.681989
RightFoot  -27.893 -0.0235084 0.282892
RightToes  -27.4105 -0.127392 -0.23456
Spine  15.879 -5.09135 8.14012
Spine1  28.8654 -8.33542 9.02086
HEad  -0.265908 17.0264 -13.9141
LeftShoulder1  0 -2.42657e-020 -4.95415e-022
LeftArm  1.17886 -14.5267 -97.7921
LeftForeArm  22.7425 -45.3753 -10.3027
LeftHand  -0.143734 -4.99342 2.92959
RightShoulder  0 2.42657e-020 1.07489e-018
RightArm  -53.4998 21.436 58.4349
RightForeArm  19.1316 29.6491 5.75713
RightHand  0.937007 21.2372 5.36642
LeftUpLeg  -62.4424 20.3626 1.86248
LeftLeg  50.2707 -2.31277 -2.4501
LeftFoot  3.58371 0.0376855 -1.20459
LeftToes  -28.7504 1.33192e-006 1.13262e-007
